<?xml version="1.0" encoding="UTF-8" standalone="no"?>
<!-- Created with Inkscape (http://www.inkscape.org/) -->

<svg
   width="48"
   height="48"
   viewBox="0 0 12.7 12.7"
   version="1.1"
   id="svg1"
   xml:space="preserve"
   inkscape:version="1.3.2 (091e20e, 2023-11-25, custom)"
   xmlns:inkscape="http://www.inkscape.org/namespaces/inkscape"
   xmlns:sodipodi="http://sodipodi.sourceforge.net/DTD/sodipodi-0.dtd"
   xmlns="http://www.w3.org/2000/svg"
   xmlns:svg="http://www.w3.org/2000/svg"><sodipodi:namedview
     id="namedview1"
     pagecolor="#505050"
     bordercolor="#eeeeee"
     borderopacity="1"
     inkscape:showpageshadow="0"
     inkscape:pageopacity="0"
     inkscape:pagecheckerboard="0"
     inkscape:deskcolor="#505050"
     inkscape:document-units="mm"
     inkscape:zoom="16"
     inkscape:cx="8.40625"
     inkscape:cy="21.28125"
     inkscape:window-width="2560"
     inkscape:window-height="1405"
     inkscape:window-x="-11"
     inkscape:window-y="-11"
     inkscape:window-maximized="1"
     inkscape:current-layer="layer1" /><defs
     id="defs1" /><g
     inkscape:label="Layer 1"
     inkscape:groupmode="layer"
     id="layer1"><path
       id="path3"
       style="opacity:1;fill:#000000;stroke-width:0.932164"
       d="m 4.6666022,0.62046421 -0.4112847,0.0271841 c 0,0 -1.4260861,0.55403201 -2.0393079,0.99775571 C 1.9609597,1.8299599 1.7398957,2.0647014 1.5570479,2.3209782 1.3815787,2.5669103 1.2803214,2.8587452 1.1492869,3.1309625 0.79888475,3.8588989 0.13693243,5.3323679 0.13693243,5.3323679 L 2.2160096,6.5173915 2.937394,5.6419642 c 0,0 0.1363351,0.7943304 0.1857577,1.8641217 0.049423,1.0697922 -0.031211,4.5518201 -0.031211,4.5518201 l 3.1478134,0.01963 v 0.002 H 6.3489938 6.460247 v -0.002 l 3.1457998,-0.01963 c 0,0 -0.08011,-3.4820279 -0.030708,-4.5518201 0.04943,-1.0697913 0.1857576,-1.8641217 0.1857576,-1.8641217 l 0.7208816,0.8754273 2.08109,-1.1850236 c 0,0 -0.663965,-1.473469 -1.014368,-2.2014054 C 11.417672,2.8587452 11.318423,2.5669103 11.142953,2.3209782 10.960105,2.0647014 10.737026,1.829956 10.481978,1.645404 9.8687547,1.2016803 8.4426695,0.64764826 8.4426695,0.64764826 L 8.2282174,0.63304941 c 0,0 -1.1546682,0.88524759 -1.8173047,0.87794459 C 5.7482764,1.5036905 4.6666022,0.62046421 4.6666022,0.62046421 Z" /><path
       style="opacity:1;fill:#000000;stroke-width:0.000101584"
       d="M 5.6126599,6.8433526 V 3.5576078 l 1e-7,0.040926 c 0,0 1e-7,0.1576106 1e-7,0.2835563 0,0.052383 0,0.1190458 0,0.1917868 0,0.069805 0,0.1525732 0,0.2298389 10e-8,0.2066162 10e-8,0.6249012 10e-8,0.6249012 l -10e-8,0.3361751 V 5.016315 c 0,0 0,0.2254621 0,0.52911 0,0.3036479 0,1.2920811 0,1.2920811 z"
       id="path4"
       sodipodi:nodetypes="cccaaaccczcc" /></g></svg>
