<?xml version="1.0" encoding="UTF-8" standalone="no"?>
<!-- Created with Inkscape (http://www.inkscape.org/) -->

<svg
   width="48"
   height="48"
   viewBox="0 0 12.7 12.7"
   version="1.1"
   id="svg1"
   xml:space="preserve"
   inkscape:version="1.3.2 (091e20e, 2023-11-25, custom)"
   sodipodi:docname="drawing.svg"
   inkscape:export-filename="drawing.png"
   inkscape:export-xdpi="2160"
   inkscape:export-ydpi="2160"
   xmlns:inkscape="http://www.inkscape.org/namespaces/inkscape"
   xmlns:sodipodi="http://sodipodi.sourceforge.net/DTD/sodipodi-0.dtd"
   xmlns="http://www.w3.org/2000/svg"
   xmlns:svg="http://www.w3.org/2000/svg"><sodipodi:namedview
     id="namedview1"
     pagecolor="#505050"
     bordercolor="#eeeeee"
     borderopacity="1"
     inkscape:showpageshadow="0"
     inkscape:pageopacity="0"
     inkscape:pagecheckerboard="0"
     inkscape:deskcolor="#505050"
     inkscape:document-units="px"
     showguides="false"
     inkscape:lockguides="false"
     inkscape:zoom="22.627417"
     inkscape:cx="16.152971"
     inkscape:cy="21.500466"
     inkscape:window-width="2560"
     inkscape:window-height="1405"
     inkscape:window-x="-11"
     inkscape:window-y="-11"
     inkscape:window-maximized="1"
     inkscape:current-layer="layer1"><sodipodi:guide
       position="6.5649741,3.1026531"
       orientation="1,0"
       id="guide4"
       inkscape:locked="false" /></sodipodi:namedview><defs
     id="defs1" /><g
     inkscape:label="Layer 1"
     inkscape:groupmode="layer"
     id="layer1"><rect
       style="opacity:1;fill:#ffffff;fill-opacity:1;stroke:none;stroke-width:0;stroke-dasharray:none"
       id="rect1"
       width="12.7"
       height="12.7"
       x="0"
       y="0"
       inkscape:label="bakcground" /><path
       id="path6"
       style="display:inline;opacity:1;fill:#b57248;fill-opacity:1;stroke-width:0.264583"
       inkscape:label="doors"
       d="M 6.5648049 3.0546463 C 6.5648049 3.0546463 5.8268917 3.2744202 5.5057652 3.4779123 C 5.271357 3.6264528 4.9109398 3.9680769 4.8962272 4.0450363 C 4.8815146 4.1219957 5.0067363 4.6729382 5.033089 4.9672141 C 5.1144043 5.8752455 5.1208931 7.3294524 5.1183544 8.357715 C 5.1166269 9.0573942 5.1732722 9.5269657 5.2049315 9.5230083 C 5.5465892 9.6832032 6.2204893 9.7033477 6.5648049 9.6117718 L 6.5648049 9.612209 C 6.9091204 9.7037849 7.5834578 9.6836404 7.9251154 9.5234456 C 7.9567748 9.527403 8.0129828 9.0578314 8.0112553 8.3581522 C 8.0087166 7.3298896 8.0152054 5.8752455 8.0965207 4.9672141 C 8.1228735 4.6729382 8.2480951 4.1219957 8.2333825 4.0450363 C 8.21867 3.9680769 7.8582527 3.6264528 7.6238445 3.4779123 C 7.302718 3.2744202 6.5648049 3.0546463 6.5648049 3.0546463 z "
       transform="matrix(1.1818285,0,0,1.1818285,-1.4084735,-1.3786797)" /><g
       id="g6"
       inkscape:label="legss"
       transform="matrix(-1.1818285,0,0,1.1818285,14.108709,-1.3783009)"
       style="stroke:#000000;stroke-width:0.132292;stroke-dasharray:none;stroke-opacity:1"><path
         style="opacity:1;fill:#5a311b;fill-opacity:1;stroke:#000000;stroke-width:0.132292;stroke-dasharray:none;stroke-opacity:1"
         d="m 5.0868093,10.917972 c -0.039154,0.02596 -0.4665709,-0.04557 -0.494031,-0.09647 -0.02746,-0.0509 0.1344697,-0.613885 0.1344697,-0.613885 l 0.494031,0.07016 c 0,0 -0.095316,0.614236 -0.1344697,0.640195 z"
         id="path5"
         sodipodi:nodetypes="zzccz"
         inkscape:label="leg left"
         transform="matrix(-1,0,0,1,13.129809,-3.205e-4)" /><path
         style="opacity:1;fill:#5a311b;fill-opacity:1;stroke:#000000;stroke-width:0.132292;stroke-dasharray:none;stroke-opacity:1"
         d="m 5.0868093,10.917972 c -0.039154,0.02596 -0.4665709,-0.04557 -0.494031,-0.09647 -0.02746,-0.0509 0.1344697,-0.613885 0.1344697,-0.613885 l 0.494031,0.07016 c 0,0 -0.095316,0.614236 -0.1344697,0.640195 z"
         id="path10"
         sodipodi:nodetypes="zzccz"
         inkscape:label="leg right" /></g><g
       id="g5"
       transform="matrix(-1.1818285,0,0,1.1818285,14.108709,-1.3783009)"
       inkscape:label="handles"><circle
         style="opacity:1;fill:#000000;fill-opacity:1;stroke:#000000;stroke-width:0.132292;stroke-dasharray:none;stroke-opacity:1"
         id="path7"
         cx="6.2931561"
         cy="6.9949217"
         r="0.097151697"
         inkscape:label="handle left"
         transform="matrix(-1,0,0,1,13.129809,-3.205e-4)" /><circle
         style="opacity:1;fill:#000000;fill-opacity:1;stroke:#000000;stroke-width:0.132292;stroke-dasharray:none;stroke-opacity:1"
         id="circle10"
         cx="6.2931561"
         cy="6.9949217"
         r="0.097151697"
         inkscape:label="handle right" /></g><path
       id="path4"
       style="display:inline;opacity:1;fill:#593c2a;fill-opacity:1;stroke:#000000;stroke-width:0.156346;stroke-dasharray:none;stroke-opacity:1"
       inkscape:label="outer frame"
       d="m 6.3500007,1.1991722 c 0,0 -0.3948916,0.1342859 -0.8024953,0.3194101 C 5.3549989,1.606014 5.0840608,1.7636226 4.8262372,1.9405945 4.5381589,2.1383336 4.2622264,2.3581515 4.0548892,2.4926916 3.66199,2.7476417 3.2312323,2.9230286 3.2346831,2.9092072 3.4839837,3.1320376 3.5952743,4.1112254 3.690896,5.330739 c 0.04847,0.6181666 0.1147805,1.2761544 0.1484066,1.9732582 0.047552,0.9857848 -0.076743,1.9495574 -0.031147,2.577877 0.036656,0.5051168 0.2427681,0.7838608 0.2821559,0.7573028 0.2041569,0.323517 1.4734239,0.02104 2.2596892,0.06658 v 6.1e-4 c 0.786265,-0.04554 2.0555321,0.256948 2.2596891,-0.06657 0.039387,0.02657 0.2455001,-0.252186 0.2821557,-0.7573009 C 8.9374413,9.2541653 8.8131463,8.2903927 8.8606982,7.3046079 8.8943246,6.6075039 8.9606348,5.9495164 9.009105,5.3313496 9.1047267,4.1118361 9.2160174,3.1326484 9.4653177,2.9098179 9.4687691,2.9236393 9.0380112,2.7482525 8.6451118,2.4933022 8.4377749,2.3587621 8.1618421,2.1389444 7.8737638,1.9412053 7.6159404,1.7642332 7.3450022,1.6066253 7.1524956,1.519193 6.7448919,1.3340688 6.3500007,1.1997829 6.3500007,1.1997829 Z m 0,1.052893 v 6.107e-4 c 0,0 0.8718631,0.2596927 1.2513791,0.5001853 0.2770299,0.1755492 0.7032698,0.5790146 0.7206575,0.6699671 0.017387,0.090952 -0.130698,0.7423641 -0.1618425,1.0901473 -0.096101,1.0731364 -0.1037704,2.7917499 -0.1007696,4.0069787 0.00204,0.8268996 -0.064575,1.3818649 -0.1019915,1.3771893 -0.40378,0.1893214 -1.200511,0.2132714 -1.6074325,0.1050444 v -6.11e-4 C 5.9430789,10.109804 5.1463479,10.085858 4.7425677,9.8965329 4.7051512,9.9012002 4.6385347,9.3462432 4.6405762,8.5193436 4.643574,7.3041147 4.6359084,5.5855014 4.5398067,4.5123651 4.5086617,4.1645818 4.3605759,3.5131705 4.3779638,3.4222177 4.3953514,3.331265 4.8215914,2.9277996 5.0986214,2.7522503 5.4781373,2.5117579 6.3500007,2.2520652 6.3500007,2.2520652 Z" /><path
       style="opacity:1;fill:none;fill-opacity:1;stroke:#000000;stroke-width:0.0625385;stroke-dasharray:none"
       d="M 6.3860982,2.3311934 6.3858968,9.9206699"
       id="path1"
       inkscape:label="door divider" /></g></svg>
